<svg width="442" height="175" viewBox="0 0 442 175" fill="none" xmlns="http://www.w3.org/2000/svg">
<path d="M12.2581 2.24732H429.742C435.271 2.24732 439.753 6.72931 439.753 12.2581V162.216C439.753 167.744 435.271 172.226 429.742 172.226H12.2581C6.72932 172.226 2.24732 167.744 2.24732 162.216V12.2581C2.24732 6.7293 6.7293 2.24732 12.2581 2.24732Z" fill="white" stroke="#1F2937" stroke-width="4.49464"/>
<path d="M126.624 49.9708C127.396 49.9708 127.954 49.799 128.298 49.4556C128.641 49.1121 129.178 48.3823 129.908 47.2661L137.764 35.2885C138.022 34.8592 138.301 34.5801 138.601 34.4513C138.945 34.2796 139.288 34.1938 139.632 34.1938H140.726C141.327 34.1938 141.757 34.3655 142.014 34.7089C142.315 35.0094 142.465 35.5031 142.465 36.19V68.9676H141.821V36.19C141.821 35.8466 141.735 35.5461 141.563 35.2885C141.435 34.988 141.156 34.8377 140.726 34.8377H139.76C139.46 34.8377 139.202 34.8807 138.988 34.9665C138.773 35.0524 138.537 35.31 138.279 35.7393L130.423 47.5881C129.65 48.7472 129.049 49.5415 128.62 49.9708C128.234 50.4001 127.568 50.6147 126.624 50.6147C125.679 50.6147 124.992 50.4001 124.563 49.9708C124.177 49.5415 123.597 48.7472 122.824 47.5881L114.968 35.7393C114.71 35.31 114.453 35.0524 114.195 34.9665C113.981 34.8807 113.723 34.8377 113.422 34.8377H112.457C112.027 34.8377 111.748 34.988 111.619 35.2885C111.491 35.5461 111.426 35.8466 111.426 36.19V68.9676H110.782V36.19C110.782 35.5031 110.911 35.0094 111.169 34.7089C111.469 34.3655 111.898 34.1938 112.457 34.1938H113.551C113.895 34.1938 114.238 34.2796 114.582 34.4513C114.925 34.5801 115.226 34.8592 115.483 35.2885L123.339 47.2661C124.069 48.3823 124.606 49.1121 124.949 49.4556C125.293 49.799 125.851 49.9708 126.624 49.9708ZM115.87 74.7632C116.685 74.7632 117.265 74.5915 117.608 74.248C117.995 73.8616 118.188 73.2606 118.188 72.4449V49.7776L121.987 56.7967C122.373 57.5265 122.824 58.0632 123.339 58.4066C123.898 58.7071 124.584 58.8574 125.4 58.8574H127.976C128.792 58.8574 129.457 58.7071 129.972 58.4066C130.53 58.0632 131.003 57.5265 131.389 56.7967L135.188 49.7776V72.4449C135.188 73.2606 135.36 73.8616 135.703 74.248C136.09 74.5915 136.691 74.7632 137.507 74.7632H147.424C148.239 74.7632 148.819 74.5915 149.162 74.248C149.549 73.8616 149.742 73.2606 149.742 72.4449V30.7164C149.742 29.9007 149.549 29.3211 149.162 28.9777C148.819 28.5913 148.239 28.3981 147.424 28.3981H136.991C136.304 28.3981 135.725 28.5484 135.253 28.8489C134.823 29.1494 134.416 29.6431 134.029 30.33L128.298 40.8265C128.083 41.2129 127.89 41.492 127.718 41.6637C127.59 41.8354 127.396 41.9213 127.139 41.9213H126.559C126.302 41.9213 126.087 41.8354 125.915 41.6637C125.786 41.492 125.615 41.2129 125.4 40.8265L119.604 30.33C119.218 29.6431 118.789 29.1494 118.317 28.8489C117.887 28.5484 117.329 28.3981 116.642 28.3981H106.275C105.459 28.3981 104.858 28.5913 104.471 28.9777C104.128 29.3211 103.956 29.9007 103.956 30.7164V72.4449C103.956 73.2606 104.128 73.8616 104.471 74.248C104.858 74.5915 105.459 74.7632 106.275 74.7632H115.87ZM117.93 74.8276L109.559 81.7823C109.387 81.9541 109.108 82.1043 108.722 82.2331C108.378 82.3619 107.992 82.4263 107.562 82.4263H97.9674C96.9371 82.4263 96.1858 82.1902 95.7136 81.7179C95.2414 81.2457 95.0052 80.4944 95.0052 79.4641V37.7355C95.0052 37.1774 95.0696 36.7052 95.1984 36.3188C95.3701 35.9325 95.6063 35.6105 95.9068 35.3529L104.214 28.3337C104.429 28.162 104.708 28.0332 105.051 27.9474C105.437 27.8186 105.845 27.7542 106.275 27.7542H116.642C117.458 27.7542 118.123 27.9259 118.639 28.2693C119.197 28.6128 119.712 29.1923 120.184 30.008L124.563 38.0575L125.143 37.0272C125.314 36.7267 125.486 36.4476 125.658 36.19C125.872 35.8895 126.087 35.6534 126.302 35.4817L134.609 28.5269C134.952 28.2693 135.296 28.0761 135.639 27.9474C136.025 27.8186 136.476 27.7542 136.991 27.7542H147.424C148.454 27.7542 149.205 27.9903 149.677 28.4625C150.15 28.9348 150.386 29.686 150.386 30.7164V72.4449C150.386 73.003 150.3 73.4753 150.128 73.8616C149.999 74.248 149.785 74.57 149.484 74.8276L141.113 81.7823C140.941 81.9541 140.662 82.1043 140.276 82.2331C139.932 82.3619 139.546 82.4263 139.116 82.4263H129.199C128.126 82.4263 127.353 82.1902 126.881 81.7179C126.452 81.2457 126.237 80.4944 126.237 79.4641V62.4636L122.438 65.619C122.094 65.9195 121.687 66.1556 121.214 66.3273C120.785 66.4561 120.27 66.5205 119.669 66.5205H118.832V72.4449C118.832 73.003 118.746 73.4753 118.574 73.8616C118.445 74.248 118.231 74.57 117.93 74.8276ZM192.837 79.3353C191.334 80.6232 189.231 81.6106 186.526 82.2975C183.821 83.0273 180.344 83.3922 176.094 83.3922C171.887 83.3922 168.431 82.9415 165.726 82.0399C163.064 81.1813 160.961 80.0222 159.415 78.5625C157.913 77.1029 156.861 75.4286 156.26 73.5397C155.702 71.6507 155.423 69.6974 155.423 67.6796V47.6525C155.423 45.6777 155.702 43.8531 156.26 42.1789C156.818 40.4616 157.827 39.002 159.286 37.7999L167.658 30.8452C169.16 29.5573 171.243 28.5699 173.904 27.883C176.609 27.1531 180.108 26.7882 184.401 26.7882C188.608 26.7882 192.042 27.1317 194.704 27.8186C197.409 28.5055 199.512 29.4714 201.015 30.7164C202.56 31.9184 203.612 33.3781 204.17 35.0953C204.728 36.7696 205.008 38.6156 205.008 40.6334V62.5924C205.008 64.5672 204.728 66.3917 204.17 68.066C203.612 69.7403 202.603 71.1785 201.144 72.3805L192.837 79.3353ZM204.364 62.5924V40.6334C204.364 38.6585 204.063 36.8769 203.462 35.2885C202.904 33.6571 201.874 32.2619 200.371 31.1028C198.911 29.9436 196.872 29.0421 194.253 28.3981C191.678 27.7542 188.393 27.4322 184.401 27.4322C180.408 27.4322 177.103 27.7542 174.484 28.3981C171.865 29.0421 169.804 29.9436 168.302 31.1028C166.842 32.2619 165.812 33.6571 165.211 35.2885C164.653 36.8769 164.374 38.6585 164.374 40.6334V62.5924C164.374 64.5672 164.653 66.3703 165.211 68.0016C165.812 69.59 166.842 70.9638 168.302 72.123C169.804 73.2391 171.865 74.1192 174.484 74.7632C177.103 75.4071 180.408 75.7291 184.401 75.7291C188.393 75.7291 191.678 75.4071 194.253 74.7632C196.872 74.1192 198.911 73.2391 200.371 72.123C201.874 70.9638 202.904 69.59 203.462 68.0016C204.063 66.3703 204.364 64.5672 204.364 62.5924ZM197.344 61.1113C197.344 63.6871 196.421 65.7907 194.575 67.422C192.729 69.0105 189.295 69.8047 184.272 69.8047C179.249 69.8047 175.836 69.0105 174.033 67.422C172.23 65.7907 171.328 63.6871 171.328 61.1113V42.1145C171.328 39.5386 172.23 37.4565 174.033 35.8681C175.836 34.2367 179.249 33.421 184.272 33.421C189.295 33.421 192.729 34.2367 194.575 35.8681C196.421 37.4565 197.344 39.5386 197.344 42.1145V61.1113ZM171.972 61.1113C171.972 63.5154 172.831 65.4687 174.548 66.9713C176.265 68.4309 179.507 69.1607 184.272 69.1607C189.037 69.1607 192.3 68.4309 194.06 66.9713C195.82 65.4687 196.7 63.5154 196.7 61.1113V42.1145C196.7 39.7103 195.82 37.7785 194.06 36.3188C192.3 34.8163 189.037 34.065 184.272 34.065C179.507 34.065 176.265 34.8163 174.548 36.3188C172.831 37.7785 171.972 39.7103 171.972 42.1145V61.1113ZM178.992 60.2741V42.9516C178.992 42.1359 179.314 41.449 179.958 40.8909C180.601 40.2899 182.083 39.9894 184.401 39.9894C186.719 39.9894 188.2 40.2899 188.844 40.8909C189.488 41.449 189.81 42.1359 189.81 42.9516V60.2741C189.81 61.1327 189.488 61.8625 188.844 62.4636C188.2 63.0217 186.719 63.3007 184.401 63.3007C182.083 63.3007 180.601 63.0217 179.958 62.4636C179.314 61.8625 178.992 61.1327 178.992 60.2741ZM179.636 60.2741C179.636 60.7034 179.721 61.0898 179.893 61.4332C180.065 61.7337 180.387 61.9913 180.859 62.206V49.9708C180.859 49.5415 180.773 49.1765 180.601 48.876C180.43 48.5326 180.108 48.275 179.636 48.1033V60.2741ZM241.643 49.9708C242.416 49.9708 242.974 49.799 243.318 49.4556C243.661 49.1121 244.198 48.3823 244.927 47.2661L252.784 35.2885C253.041 34.8592 253.32 34.5801 253.621 34.4513C253.964 34.2796 254.308 34.1938 254.651 34.1938H255.746C256.347 34.1938 256.776 34.3655 257.034 34.7089C257.334 35.0094 257.485 35.5031 257.485 36.19V68.9676H256.841V36.19C256.841 35.8466 256.755 35.5461 256.583 35.2885C256.454 34.988 256.175 34.8377 255.746 34.8377H254.78C254.48 34.8377 254.222 34.8807 254.007 34.9665C253.793 35.0524 253.557 35.31 253.299 35.7393L245.443 47.5881C244.67 48.7472 244.069 49.5415 243.64 49.9708C243.253 50.4001 242.588 50.6147 241.643 50.6147C240.699 50.6147 240.012 50.4001 239.583 49.9708C239.196 49.5415 238.617 48.7472 237.844 47.5881L229.988 35.7393C229.73 35.31 229.472 35.0524 229.215 34.9665C229 34.8807 228.743 34.8377 228.442 34.8377H227.476C227.047 34.8377 226.768 34.988 226.639 35.2885C226.51 35.5461 226.446 35.8466 226.446 36.19V68.9676H225.802V36.19C225.802 35.5031 225.931 35.0094 226.188 34.7089C226.489 34.3655 226.918 34.1938 227.476 34.1938H228.571C228.914 34.1938 229.258 34.2796 229.601 34.4513C229.945 34.5801 230.245 34.8592 230.503 35.2885L238.359 47.2661C239.089 48.3823 239.626 49.1121 239.969 49.4556C240.312 49.799 240.871 49.9708 241.643 49.9708ZM230.889 74.7632C231.705 74.7632 232.284 74.5915 232.628 74.248C233.014 73.8616 233.207 73.2606 233.207 72.4449V49.7776L237.007 56.7967C237.393 57.5265 237.844 58.0632 238.359 58.4066C238.917 58.7071 239.604 58.8574 240.42 58.8574H242.996C243.811 58.8574 244.477 58.7071 244.992 58.4066C245.55 58.0632 246.022 57.5265 246.409 56.7967L250.208 49.7776V72.4449C250.208 73.2606 250.38 73.8616 250.723 74.248C251.109 74.5915 251.71 74.7632 252.526 74.7632H262.443C263.259 74.7632 263.838 74.5915 264.182 74.248C264.568 73.8616 264.761 73.2606 264.761 72.4449V30.7164C264.761 29.9007 264.568 29.3211 264.182 28.9777C263.838 28.5913 263.259 28.3981 262.443 28.3981H252.011C251.324 28.3981 250.745 28.5484 250.272 28.8489C249.843 29.1494 249.435 29.6431 249.049 30.33L243.318 40.8265C243.103 41.2129 242.91 41.492 242.738 41.6637C242.609 41.8354 242.416 41.9213 242.158 41.9213H241.579C241.321 41.9213 241.107 41.8354 240.935 41.6637C240.806 41.492 240.634 41.2129 240.42 40.8265L234.624 30.33C234.238 29.6431 233.808 29.1494 233.336 28.8489C232.907 28.5484 232.349 28.3981 231.662 28.3981H221.294C220.478 28.3981 219.877 28.5913 219.491 28.9777C219.148 29.3211 218.976 29.9007 218.976 30.7164V72.4449C218.976 73.2606 219.148 73.8616 219.491 74.248C219.877 74.5915 220.478 74.7632 221.294 74.7632H230.889ZM232.95 74.8276L224.578 81.7823C224.407 81.9541 224.128 82.1043 223.741 82.2331C223.398 82.3619 223.011 82.4263 222.582 82.4263H212.987C211.957 82.4263 211.205 82.1902 210.733 81.7179C210.261 81.2457 210.025 80.4944 210.025 79.4641V37.7355C210.025 37.1774 210.089 36.7052 210.218 36.3188C210.39 35.9325 210.626 35.6105 210.926 35.3529L219.233 28.3337C219.448 28.162 219.727 28.0332 220.071 27.9474C220.457 27.8186 220.865 27.7542 221.294 27.7542H231.662C232.478 27.7542 233.143 27.9259 233.658 28.2693C234.216 28.6128 234.731 29.1923 235.204 30.008L239.583 38.0575L240.162 37.0272C240.334 36.7267 240.506 36.4476 240.677 36.19C240.892 35.8895 241.107 35.6534 241.321 35.4817L249.628 28.5269C249.972 28.2693 250.315 28.0761 250.659 27.9474C251.045 27.8186 251.496 27.7542 252.011 27.7542H262.443C263.473 27.7542 264.225 27.9903 264.697 28.4625C265.169 28.9348 265.405 29.686 265.405 30.7164V72.4449C265.405 73.003 265.319 73.4753 265.148 73.8616C265.019 74.248 264.804 74.57 264.504 74.8276L256.132 81.7823C255.961 81.9541 255.682 82.1043 255.295 82.2331C254.952 82.3619 254.565 82.4263 254.136 82.4263H244.219C243.146 82.4263 242.373 82.1902 241.901 81.7179C241.472 81.2457 241.257 80.4944 241.257 79.4641V62.4636L237.458 65.619C237.114 65.9195 236.706 66.1556 236.234 66.3273C235.805 66.4561 235.29 66.5205 234.689 66.5205H233.851V72.4449C233.851 73.003 233.766 73.4753 233.594 73.8616C233.465 74.248 233.25 74.57 232.95 74.8276ZM274.049 60.2097C273.018 60.2097 272.267 59.9951 271.795 59.5657C271.322 59.0935 271.086 58.3208 271.086 57.2475V54.6717C271.086 54.1136 271.151 53.6413 271.279 53.255C271.451 52.8686 271.687 52.5466 271.988 52.289L274.435 50.2283H273.211C272.181 50.2283 271.43 49.9922 270.957 49.52C270.485 49.0478 270.249 48.2965 270.249 47.2661V37.7355C270.249 37.1774 270.314 36.7052 270.442 36.3188C270.614 35.9325 270.85 35.6105 271.151 35.3529L279.458 28.3337C279.672 28.162 279.951 28.0332 280.295 27.9474C280.681 27.8186 281.089 27.7542 281.518 27.7542H294.526C295.557 27.7542 296.308 27.9903 296.78 28.4625C297.252 28.9348 297.489 29.686 297.489 30.7164V42.8228C297.489 44.7118 297.188 46.3431 296.587 47.7169C296.029 49.0478 295.256 50.1425 294.269 51.0011L285.897 58.0202C285.082 58.7071 284.073 59.2438 282.871 59.6301C281.712 60.0165 280.424 60.2097 279.007 60.2097H274.049ZM287.314 52.5466C290.19 52.5466 292.487 51.7524 294.204 50.1639C295.965 48.5326 296.845 46.0855 296.845 42.8228V30.7164C296.845 29.9007 296.651 29.3211 296.265 28.9777C295.922 28.5913 295.342 28.3981 294.526 28.3981H281.518C280.703 28.3981 280.102 28.5913 279.715 28.9777C279.372 29.3211 279.2 29.9007 279.2 30.7164V40.247C279.2 41.0627 279.372 41.6637 279.715 42.0501C280.102 42.3935 280.703 42.5652 281.518 42.5652H288.538V43.5312C288.538 44.0893 288.387 44.54 288.087 44.8835C287.786 45.184 287.357 45.3343 286.799 45.3343H282.356C281.54 45.3343 280.939 45.5274 280.552 45.9138C280.209 46.2573 280.037 46.8368 280.037 47.6525V50.2283C280.037 51.044 280.209 51.6451 280.552 52.0314C280.939 52.3749 281.54 52.5466 282.356 52.5466H287.314ZM292.337 35.1597V42.8228C292.337 44.7976 291.822 46.2787 290.791 47.2661C289.761 48.2106 288.387 48.6828 286.67 48.6828H283.708V48.0389H286.67C288.216 48.0389 289.439 47.6096 290.341 46.751C291.242 45.8494 291.693 44.54 291.693 42.8228V35.8037H283.708V35.1597H292.337ZM303.517 82.4263C302.486 82.4263 301.735 82.1902 301.263 81.7179C300.791 81.2457 300.554 80.4944 300.554 79.4641V71.9298C300.554 71.3717 300.619 70.8994 300.748 70.5131C300.919 70.1267 301.155 69.8047 301.456 69.5471L307.896 64.1379C305.62 63.451 303.817 62.2918 302.486 60.6605C301.198 58.9862 300.554 56.6035 300.554 53.5125V46.751C300.554 44.8191 300.876 43.1019 301.52 41.5993C302.164 40.0967 303.087 38.8303 304.289 37.7999L312.661 30.7808C313.82 29.8363 315.258 29.1065 316.975 28.5913C318.693 28.0332 320.646 27.7542 322.835 27.7542H340.866C341.897 27.7542 342.648 27.9903 343.12 28.4625C343.592 28.9348 343.829 29.686 343.829 30.7164V38.3795C343.829 38.9376 343.743 39.4098 343.571 39.7962C343.442 40.1826 343.227 40.5046 342.927 40.7621L337.131 45.5918C339.836 46.1929 342.004 47.3305 343.635 49.0048C345.31 50.6362 346.147 53.1906 346.147 56.6679V63.4295C346.147 65.3614 345.825 67.0786 345.181 68.5812C344.537 70.0837 343.592 71.3502 342.347 72.3805L334.04 79.3353C332.838 80.3227 331.379 81.074 329.661 81.5891C327.944 82.1472 326.012 82.4263 323.866 82.4263H303.517ZM332.173 74.7632C336.294 74.7632 339.535 73.7972 341.897 71.8654C344.301 69.8906 345.503 67.0786 345.503 63.4295V56.6679C345.503 53.0618 344.58 50.4859 342.734 48.9404C340.888 47.3949 338.462 46.4075 335.457 45.9782L325.862 44.6903C325.304 44.6474 324.875 44.4327 324.574 44.0463C324.274 43.66 324.123 43.1877 324.123 42.6296C324.123 42.0715 324.274 41.6208 324.574 41.2773C324.875 40.8909 325.304 40.6977 325.862 40.6977H340.866C341.682 40.6977 342.262 40.526 342.605 40.1826C342.991 39.7962 343.185 39.1952 343.185 38.3795V30.7164C343.185 29.9007 342.991 29.3211 342.605 28.9777C342.262 28.5913 341.682 28.3981 340.866 28.3981H322.835C318.671 28.3981 315.408 29.3855 313.047 31.3603C310.686 33.2922 309.505 36.0827 309.505 39.7318V46.4934C309.505 50.0996 310.407 52.6754 312.21 54.2209C314.056 55.7664 316.482 56.7538 319.487 57.1831L329.146 58.5354C329.704 58.5783 330.112 58.7715 330.37 59.115C330.67 59.4584 330.821 59.9951 330.821 60.7249C330.821 61.24 330.67 61.6908 330.37 62.0772C330.112 62.4206 329.704 62.5924 329.146 62.5924H311.824C311.008 62.5924 310.407 62.7855 310.021 63.1719C309.677 63.5154 309.505 64.0949 309.505 64.9106V72.4449C309.505 73.2606 309.677 73.8616 310.021 74.248C310.407 74.5915 311.008 74.7632 311.824 74.7632H332.173ZM337.389 34.1938V34.8377H323.093C321.29 34.8377 319.852 35.3314 318.778 36.3188C317.705 37.3062 317.169 38.5512 317.169 40.0538V45.3343C317.169 46.8368 317.469 47.8886 318.07 48.4897C318.671 49.0907 319.465 49.4771 320.453 49.6488L334.04 52.4178C335.328 52.6754 336.38 53.2335 337.196 54.0921C338.054 54.9507 338.484 56.4962 338.484 58.7286V62.4636C338.484 64.3525 337.84 65.9195 336.552 67.1645C335.264 68.3665 333.525 68.9676 331.336 68.9676H315.301V68.3236H331.336C333.311 68.3236 334.877 67.787 336.037 66.7137C337.239 65.5975 337.84 64.1808 337.84 62.4636V58.7286C337.84 56.7109 337.475 55.3371 336.745 54.6073C336.058 53.8345 335.114 53.3193 333.912 53.0618L320.324 50.2927C319.208 50.0781 318.285 49.6488 317.555 49.0048C316.868 48.3179 316.525 47.0944 316.525 45.3343V40.0538C316.525 38.3366 317.126 36.9413 318.328 35.8681C319.53 34.7519 321.118 34.1938 323.093 34.1938H337.389Z" fill="#1F2937"/>
<path d="M63.8372 136.387H63.1932V101.614H63.8372V118.743H77.8111L85.2166 101.614H85.925L78.5194 118.743H81.1597C83.7784 118.743 85.7318 119.237 87.0197 120.224C88.3076 121.212 88.9516 122.821 88.9516 125.054V136.387H88.3076V125.054C88.3076 122.993 87.7066 121.533 86.5045 120.675C85.3025 119.816 83.5208 119.387 81.1597 119.387H63.8372V136.387ZM68.4737 142.183C69.2893 142.183 69.8689 142.011 70.2123 141.668C70.5987 141.282 70.7919 140.681 70.7919 139.865V125.118H79.2922C79.9791 125.118 80.4942 125.311 80.8377 125.698C81.1811 126.084 81.3528 126.621 81.3528 127.308V139.865C81.3528 140.681 81.5246 141.282 81.868 141.668C82.2544 142.011 82.8554 142.183 83.6711 142.183H93.5881C94.4037 142.183 94.9833 142.011 95.3268 141.668C95.7131 141.282 95.9063 140.681 95.9063 139.865V121.705C95.9063 119.129 95.1765 117.069 93.7169 115.523C92.3001 113.935 90.3897 113.076 87.9856 112.947L94.554 97.9431C94.8545 97.2562 94.876 96.7411 94.6184 96.3976C94.3608 96.0112 93.8671 95.8181 93.1373 95.8181H83.2203C82.4046 95.8181 81.7392 95.9898 81.224 96.3332C80.7089 96.6337 80.301 97.1704 80.0005 97.9431L73.3678 112.947H70.7919V98.1363C70.7919 97.3206 70.5987 96.7411 70.2123 96.3976C69.8689 96.0112 69.2893 95.8181 68.4737 95.8181H58.4923C57.6766 95.8181 57.0756 96.0112 56.6892 96.3976C56.3458 96.7411 56.174 97.3206 56.174 98.1363V139.865C56.174 140.681 56.3458 141.282 56.6892 141.668C57.0756 142.011 57.6766 142.183 58.4923 142.183H68.4737ZM70.5343 142.248L62.1629 149.202C61.9911 149.374 61.7121 149.524 61.3257 149.653C60.9823 149.782 60.5959 149.846 60.1666 149.846H50.1852C49.1549 149.846 48.4036 149.61 47.9314 149.138C47.4591 148.666 47.223 147.914 47.223 146.884V105.155C47.223 104.597 47.2874 104.125 47.4162 103.739C47.5879 103.352 47.824 103.03 48.1246 102.773L56.4316 95.7537C56.6463 95.5819 56.9253 95.4531 57.2688 95.3673C57.6551 95.2385 58.063 95.1741 58.4923 95.1741H68.4737C69.504 95.1741 70.2553 95.4102 70.7275 95.8824C71.1998 96.3547 71.4359 97.106 71.4359 98.1363V103.996C71.5647 103.825 71.6935 103.653 71.8222 103.481C71.951 103.267 72.1013 103.095 72.273 102.966L80.5801 95.9468C80.8806 95.6893 81.2455 95.4961 81.6748 95.3673C82.1471 95.2385 82.6622 95.1741 83.2203 95.1741H93.1373C94.2106 95.1741 94.9189 95.4531 95.2624 96.0112C95.6058 96.5264 95.5629 97.2562 95.1336 98.2007L88.9516 112.368C91.2698 112.668 93.1158 113.656 94.4896 115.33C95.8634 117.004 96.5503 119.129 96.5503 121.705V139.865C96.5503 140.423 96.4644 140.895 96.2927 141.282C96.1639 141.668 95.9492 141.99 95.6487 142.248L87.2773 149.202C87.1055 149.374 86.8265 149.524 86.4401 149.653C86.0967 149.782 85.7103 149.846 85.281 149.846H75.364C74.3337 149.846 73.5824 149.61 73.1102 149.138C72.6379 148.666 72.4018 147.914 72.4018 146.884V134.327C72.4018 133.897 72.3159 133.554 72.1442 133.296C71.9725 133.039 71.7364 132.889 71.4359 132.846V139.865C71.4359 140.423 71.35 140.895 71.1783 141.282C71.0495 141.668 70.8348 141.99 70.5343 142.248ZM131.047 149.846H103.615C102.584 149.846 101.833 149.61 101.361 149.138C100.889 148.666 100.652 147.914 100.652 146.884V139.221C100.652 138.663 100.717 138.191 100.846 137.804C101.017 137.418 101.254 137.096 101.554 136.838L109.346 130.27V115.91H103.615C102.584 115.91 101.833 115.673 101.361 115.201C100.889 114.729 100.652 113.978 100.652 112.947V105.155C100.652 104.597 100.717 104.125 100.846 103.739C101.017 103.352 101.254 103.03 101.554 102.773L109.861 95.7537C110.076 95.5819 110.355 95.4531 110.698 95.3673C111.085 95.2385 111.492 95.1741 111.922 95.1741H139.354C140.385 95.1741 141.136 95.4102 141.608 95.8824C142.081 96.3547 142.317 97.106 142.317 98.1363V105.928C142.317 106.486 142.231 106.959 142.059 107.345C141.93 107.731 141.716 108.053 141.415 108.311L133.752 114.75V129.24H139.354C140.385 129.24 141.136 129.476 141.608 129.948C142.081 130.42 142.317 131.171 142.317 132.202V139.865C142.317 140.423 142.231 140.895 142.059 141.282C141.93 141.668 141.716 141.99 141.415 142.248L133.044 149.202C132.872 149.374 132.593 149.524 132.206 149.653C131.863 149.782 131.477 149.846 131.047 149.846ZM111.922 142.183H139.354C140.17 142.183 140.75 142.011 141.093 141.668C141.479 141.282 141.673 140.681 141.673 139.865V132.202C141.673 131.386 141.479 130.806 141.093 130.463C140.75 130.077 140.17 129.883 139.354 129.883H133.108V108.246H139.354C140.17 108.246 140.75 108.075 141.093 107.731C141.479 107.345 141.673 106.744 141.673 105.928V98.1363C141.673 97.3206 141.479 96.7411 141.093 96.3976C140.75 96.0112 140.17 95.8181 139.354 95.8181H111.922C111.106 95.8181 110.505 96.0112 110.119 96.3976C109.775 96.7411 109.604 97.3206 109.604 98.1363V105.928C109.604 106.744 109.775 107.345 110.119 107.731C110.505 108.075 111.106 108.246 111.922 108.246H118.297V129.883H111.922C111.106 129.883 110.505 130.077 110.119 130.463C109.775 130.806 109.604 131.386 109.604 132.202V139.865C109.604 140.681 109.775 141.282 110.119 141.668C110.505 142.011 111.106 142.183 111.922 142.183ZM135.877 136.387H115.399V135.744H125.381V102.258H115.399V101.614H135.877V102.258H126.024V135.744H135.877V136.387ZM169.626 149.846H159.193C158.163 149.846 157.412 149.61 156.94 149.138C156.467 148.666 156.231 147.914 156.231 146.884V115.91H147.409C146.379 115.91 145.627 115.673 145.155 115.201C144.683 114.729 144.447 113.978 144.447 112.947V105.155C144.447 104.597 144.511 104.125 144.64 103.739C144.812 103.352 145.048 103.03 145.348 102.773L153.655 95.7537C153.87 95.5819 154.149 95.4531 154.493 95.3673C154.879 95.2385 155.287 95.1741 155.716 95.1741H189.717C190.747 95.1741 191.499 95.4102 191.971 95.8824C192.443 96.3547 192.679 97.106 192.679 98.1363V105.928C192.679 106.486 192.593 106.959 192.422 107.345C192.293 107.731 192.078 108.053 191.778 108.311L183.406 115.266C183.235 115.437 182.955 115.588 182.569 115.716C182.226 115.845 181.839 115.91 181.41 115.91H180.895V139.865C180.895 140.423 180.809 140.895 180.637 141.282C180.508 141.668 180.294 141.99 179.993 142.248L171.622 149.202C171.45 149.374 171.171 149.524 170.785 149.653C170.441 149.782 170.055 149.846 169.626 149.846ZM177.933 142.183C178.748 142.183 179.328 142.011 179.671 141.668C180.058 141.282 180.251 140.681 180.251 139.865V108.246H189.717C190.533 108.246 191.112 108.075 191.456 107.731C191.842 107.345 192.035 106.744 192.035 105.928V98.1363C192.035 97.3206 191.842 96.7411 191.456 96.3976C191.112 96.0112 190.533 95.8181 189.717 95.8181H155.716C154.9 95.8181 154.299 96.0112 153.913 96.3976C153.569 96.7411 153.398 97.3206 153.398 98.1363V105.928C153.398 106.744 153.569 107.345 153.913 107.731C154.299 108.075 154.9 108.246 155.716 108.246H165.182V139.865C165.182 140.681 165.354 141.282 165.697 141.668C166.084 142.011 166.685 142.183 167.5 142.183H177.933ZM172.395 136.387V102.258H159.193V101.614H186.24V102.258H173.039V136.387H172.395ZM226.936 149.846H211.224C205.6 149.846 201.436 148.387 198.731 145.467C196.069 142.548 194.738 138.77 194.738 134.134V116.038C194.738 113.677 195.082 111.638 195.769 109.921C196.456 108.161 197.465 106.701 198.795 105.542L207.167 98.5227C208.498 97.4065 210.193 96.5693 212.254 96.0112C214.315 95.4531 216.74 95.1741 219.531 95.1741H235.243C236.274 95.1741 237.025 95.4102 237.497 95.8824C237.97 96.3547 238.206 97.106 238.206 98.1363V105.928C238.206 106.486 238.12 106.959 237.948 107.345C237.819 107.731 237.605 108.053 237.304 108.311L228.933 115.266C228.761 115.437 228.482 115.588 228.096 115.716C227.752 115.845 227.366 115.91 226.936 115.91H219.016V126.792C219.016 127.694 219.295 128.338 219.853 128.724C220.411 129.068 221.227 129.24 222.3 129.24H235.243C236.274 129.24 237.025 129.476 237.497 129.948C237.97 130.42 238.206 131.171 238.206 132.202V139.865C238.206 140.423 238.12 140.895 237.948 141.282C237.819 141.668 237.605 141.99 237.304 142.248L228.933 149.202C228.761 149.374 228.482 149.524 228.096 149.653C227.752 149.782 227.366 149.846 226.936 149.846ZM235.243 142.183C236.059 142.183 236.639 142.011 236.982 141.668C237.369 141.282 237.562 140.681 237.562 139.865V132.202C237.562 131.386 237.369 130.806 236.982 130.463C236.639 130.077 236.059 129.883 235.243 129.883H222.3C220.969 129.883 219.982 129.647 219.338 129.175C218.694 128.66 218.372 127.866 218.372 126.792V111.466C218.372 110.393 218.694 109.599 219.338 109.084C219.982 108.526 220.969 108.246 222.3 108.246H235.243C236.059 108.246 236.639 108.075 236.982 107.731C237.369 107.345 237.562 106.744 237.562 105.928V98.1363C237.562 97.3206 237.369 96.7411 236.982 96.3976C236.639 96.0112 236.059 95.8181 235.243 95.8181H219.531C214.165 95.8181 210.172 96.9128 207.553 99.1022C204.977 101.249 203.689 104.554 203.689 109.019V129.046C203.689 133.511 204.977 136.817 207.553 138.963C210.172 141.11 214.165 142.183 219.531 142.183H235.243ZM231.702 135.744V136.387H220.948C216.783 136.387 214.014 135.744 212.64 134.456C211.31 133.168 210.644 131.043 210.644 128.08V110.05C210.644 107.001 211.331 104.833 212.705 103.546C214.079 102.258 216.826 101.614 220.948 101.614H231.702V102.258H220.948C217.17 102.258 214.615 102.859 213.284 104.061C211.954 105.22 211.288 107.216 211.288 110.05V128.08C211.288 130.871 211.932 132.846 213.22 134.005C214.508 135.164 217.084 135.744 220.948 135.744H231.702ZM258.203 136.387V101.614H258.847V118.679H283.575V101.614H284.219V136.387H283.575V119.323H258.847V136.387H258.203ZM263.548 142.183C264.364 142.183 264.943 142.011 265.287 141.668C265.673 141.282 265.866 140.681 265.866 139.865V125.569H276.62V139.865C276.62 140.681 276.792 141.282 277.136 141.668C277.522 142.011 278.123 142.183 278.939 142.183H288.92C289.736 142.183 290.315 142.011 290.659 141.668C291.045 141.282 291.238 140.681 291.238 139.865V98.1363C291.238 97.3206 291.045 96.7411 290.659 96.3976C290.315 96.0112 289.736 95.8181 288.92 95.8181H278.939C278.123 95.8181 277.522 96.0112 277.136 96.3976C276.792 96.7411 276.62 97.3206 276.62 98.1363V112.11H265.866V98.1363C265.866 97.3206 265.673 96.7411 265.287 96.3976C264.943 96.0112 264.364 95.8181 263.548 95.8181H253.567C252.751 95.8181 252.15 96.0112 251.764 96.3976C251.42 96.7411 251.248 97.3206 251.248 98.1363V139.865C251.248 140.681 251.42 141.282 251.764 141.668C252.15 142.011 252.751 142.183 253.567 142.183H263.548ZM265.609 142.248L257.237 149.202C257.065 149.374 256.786 149.524 256.4 149.653C256.057 149.782 255.67 149.846 255.241 149.846H245.26C244.229 149.846 243.478 149.61 243.006 149.138C242.533 148.666 242.297 147.914 242.297 146.884V105.155C242.297 104.597 242.362 104.125 242.491 103.739C242.662 103.352 242.898 103.03 243.199 102.773L251.506 95.7537C251.721 95.5819 252 95.4531 252.343 95.3673C252.729 95.2385 253.137 95.1741 253.567 95.1741H263.548C264.578 95.1741 265.33 95.4102 265.802 95.8824C266.274 96.3547 266.51 97.106 266.51 98.1363V111.466H267.669V105.155C267.669 104.597 267.734 104.125 267.862 103.739C268.034 103.352 268.27 103.03 268.571 102.773L276.878 95.7537C277.093 95.5819 277.372 95.4531 277.715 95.3673C278.101 95.2385 278.509 95.1741 278.939 95.1741H288.92C289.95 95.1741 290.702 95.4102 291.174 95.8824C291.646 96.3547 291.882 97.106 291.882 98.1363V139.865C291.882 140.423 291.796 140.895 291.625 141.282C291.496 141.668 291.281 141.99 290.981 142.248L282.609 149.202C282.437 149.374 282.158 149.524 281.772 149.653C281.429 149.782 281.042 149.846 280.613 149.846H270.632C269.601 149.846 268.85 149.61 268.378 149.138C267.905 148.666 267.669 147.914 267.669 146.884V133.232H266.51V139.865C266.51 140.423 266.424 140.895 266.253 141.282C266.124 141.668 265.909 141.99 265.609 142.248ZM330.479 149.846H300.6C299.569 149.846 298.818 149.61 298.346 149.138C297.874 148.666 297.638 147.914 297.638 146.884V105.155C297.638 104.597 297.702 104.125 297.831 103.739C298.002 103.352 298.239 103.03 298.539 102.773L306.846 95.7537C307.061 95.5819 307.34 95.4531 307.683 95.3673C308.07 95.2385 308.478 95.1741 308.907 95.1741H338.787C339.817 95.1741 340.568 95.4102 341.04 95.8824C341.513 96.3547 341.749 97.106 341.749 98.1363V105.671C341.749 106.229 341.663 106.701 341.491 107.087C341.362 107.474 341.148 107.796 340.847 108.053L335.309 112.625C335.738 112.84 336.039 113.162 336.211 113.591C336.425 114.021 336.533 114.579 336.533 115.266V122.156C336.533 122.714 336.447 123.186 336.275 123.573C336.146 123.959 335.932 124.281 335.631 124.539L329.9 129.368H338.787C339.817 129.368 340.568 129.604 341.04 130.077C341.513 130.549 341.749 131.3 341.749 132.331V139.865C341.749 140.423 341.663 140.895 341.491 141.282C341.362 141.668 341.148 141.99 340.847 142.248L332.476 149.202C332.304 149.374 332.025 149.524 331.639 149.653C331.295 149.782 330.909 149.846 330.479 149.846ZM338.787 142.183C339.602 142.183 340.182 142.011 340.525 141.668C340.912 141.282 341.105 140.681 341.105 139.865V132.331C341.105 131.515 340.912 130.935 340.525 130.592C340.182 130.205 339.602 130.012 338.787 130.012H321.013V124.474H333.57C334.386 124.474 334.966 124.303 335.309 123.959C335.696 123.573 335.889 122.972 335.889 122.156V115.266C335.889 114.45 335.696 113.87 335.309 113.527C334.966 113.141 334.386 112.947 333.57 112.947H321.013V107.989H338.787C339.602 107.989 340.182 107.817 340.525 107.474C340.912 107.087 341.105 106.486 341.105 105.671V98.1363C341.105 97.3206 340.912 96.7411 340.525 96.3976C340.182 96.0112 339.602 95.8181 338.787 95.8181H308.907C308.091 95.8181 307.49 96.0112 307.104 96.3976C306.76 96.7411 306.589 97.3206 306.589 98.1363V139.865C306.589 140.681 306.76 141.282 307.104 141.668C307.49 142.011 308.091 142.183 308.907 142.183H338.787ZM335.309 135.744V136.387H313.608V101.614H335.309V102.258H314.252V118.421H330.093V119.065H314.252V135.744H335.309ZM363.637 102.129L387.335 128.789V101.614H387.979V136.387H387.335V129.755L362.993 102.451C362.95 102.408 362.886 102.365 362.8 102.322C362.757 102.279 362.714 102.258 362.671 102.258C362.628 102.258 362.586 102.279 362.543 102.322C362.543 102.365 362.543 102.408 362.543 102.451V136.387H361.899V102.322C361.899 102.064 361.984 101.871 362.156 101.742C362.328 101.614 362.5 101.549 362.671 101.549C362.843 101.549 362.993 101.592 363.122 101.678C363.251 101.764 363.423 101.914 363.637 102.129ZM367.115 142.183C367.93 142.183 368.51 142.011 368.853 141.668C369.24 141.282 369.433 140.681 369.433 139.865V118.614L380.445 131.944V139.865C380.445 140.681 380.616 141.282 380.96 141.668C381.346 142.011 381.947 142.183 382.763 142.183H392.422C393.238 142.183 393.818 142.011 394.161 141.668C394.547 141.282 394.741 140.681 394.741 139.865V98.1363C394.741 97.3206 394.547 96.7411 394.161 96.3976C393.818 96.0112 393.238 95.8181 392.422 95.8181H382.763C381.947 95.8181 381.346 96.0112 380.96 96.3976C380.616 96.7411 380.445 97.3206 380.445 98.1363V111.853L367.952 97.5567C367.394 96.9128 366.814 96.462 366.213 96.2044C365.655 95.9468 364.968 95.8181 364.152 95.8181H357.455C356.64 95.8181 356.039 96.0112 355.652 96.3976C355.309 96.7411 355.137 97.3206 355.137 98.1363V139.865C355.137 140.681 355.309 141.282 355.652 141.668C356.039 142.011 356.64 142.183 357.455 142.183H367.115ZM369.175 142.248L360.804 149.202C360.632 149.374 360.353 149.524 359.967 149.653C359.623 149.782 359.237 149.846 358.808 149.846H349.148C348.118 149.846 347.367 149.61 346.894 149.138C346.422 148.666 346.186 147.914 346.186 146.884V105.155C346.186 104.597 346.25 104.125 346.379 103.739C346.551 103.352 346.787 103.03 347.088 102.773L355.395 95.7537C355.609 95.5819 355.888 95.4531 356.232 95.3673C356.618 95.2385 357.026 95.1741 357.455 95.1741H364.152C365.097 95.1741 365.891 95.3244 366.535 95.6249C367.179 95.9254 367.823 96.4191 368.467 97.106L372.91 102.258L380.702 95.7537C380.917 95.5819 381.196 95.4531 381.539 95.3673C381.926 95.2385 382.334 95.1741 382.763 95.1741H392.422C393.453 95.1741 394.204 95.4102 394.676 95.8824C395.148 96.3547 395.384 97.106 395.384 98.1363V139.865C395.384 140.423 395.299 140.895 395.127 141.282C394.998 141.668 394.783 141.99 394.483 142.248L386.111 149.202C385.94 149.374 385.661 149.524 385.274 149.653C384.931 149.782 384.545 149.846 384.115 149.846H374.456C373.425 149.846 372.674 149.61 372.202 149.138C371.73 148.666 371.494 147.914 371.494 146.884V139.221L370.077 137.482V139.865C370.077 140.423 369.991 140.895 369.819 141.282C369.691 141.668 369.476 141.99 369.175 142.248Z" fill="#1F2937"/>
</svg>
